<?xml version="1.0" encoding="utf-8"?>
<!-- Generator: Adobe Illustrator 25.4.1, SVG Export Plug-In . SVG Version: 6.00 Build 0)  -->
<svg version="1.1" id="Capa_1" xmlns="http://www.w3.org/2000/svg" xmlns:xlink="http://www.w3.org/1999/xlink" x="0px" y="0px"
	 viewBox="0 0 203.3 154.1" style="enable-background:new 0 0 203.3 154.1;" xml:space="preserve">
<style type="text/css">
	.st0{fill:#7F9C9F;}
	.st1{fill:#5E7A7D;}
</style>
<g>
	<g>
		<path class="st0" d="M125.7,56.4c-6.5,0-11.7-5.3-11.7-11.7S119.3,33,125.7,33H151V8.4c0-3.9-3.2-7.1-7.1-7.1H72.8
			c-3.9,0-7.1,3.2-7.1,7.1v9.8h31c1.4,0,2.6,1.2,2.6,2.6s-1.2,2.6-2.6,2.6h-2.4H65.7h-1.1c-2.8,0-5,2.2-5,5V29c0,2.8,2.2,5,5,5h1.1
			h20.9c1.3,0,2.4,1.1,2.4,2.4c0,1.3-1.1,2.4-2.4,2.4h-3.8h-5.5c-2.8,0-5.1,2.3-5.1,5.1s2.3,5.1,5.1,5.1h5.5h13.9
			c1.4,0,2.5,1.1,2.5,2.5S98.1,54,96.7,54h-31h-6.4c-3,0-5.4,2.4-5.4,5.4s2.4,5.4,5.4,5.4h6.4h26.7c1.5,0,2.7,1.2,2.7,2.7
			s-1.2,2.7-2.7,2.7H65.7v10.6c0,3.9,3.2,7.1,7.1,7.1h71.1c3.9,0,7.1-3.2,7.1-7.1V56.4H125.7z"/>
		<circle class="st0" cx="128" cy="44.6" r="6.2"/>
		<path class="st1" d="M103,82.1c5.9-9.7,8.3-21.3,7.9-32.6c-0.4-9.8-2.7-20,0.8-29.2c2.6-6.8,8.3-12.1,14.6-15.8
			c2.2-1.3,4.5-2.3,6.8-3.3H72.8c-3.9,0-7.1,3.2-7.1,7.1v9.8h31c1.4,0,2.6,1.2,2.6,2.6s-1.2,2.6-2.6,2.6h-2.4H65.7h-1.1
			c-2.8,0-5,2.2-5,5V29c0,2.8,2.2,5,5,5h1.1h20.9c1.3,0,2.4,1.1,2.4,2.4c0,1.3-1.1,2.4-2.4,2.4h-3.8h-5.5c-2.8,0-5.1,2.3-5.1,5.1
			s2.3,5.1,5.1,5.1h5.5h13.9c1.4,0,2.5,1.1,2.5,2.5S98.1,54,96.7,54h-31h-6.4c-3,0-5.4,2.4-5.4,5.4s2.4,5.4,5.4,5.4h6.4h26.7
			c1.5,0,2.7,1.2,2.7,2.7s-1.2,2.7-2.7,2.7H65.7v10.6c0,3.9,3.2,7.1,7.1,7.1h26C100.3,86.1,101.7,84.1,103,82.1z"/>
	</g>
	<g>
		<g>
			<path class="st0" d="M1.6,110h12.1c4.1,0,7.2,1,9.2,2.9s3,4.9,3,8.9v9.7c0,4-1,7-3,8.9s-5.1,2.9-9.2,2.9H1.6v-6.1h3.1V116H1.6
				V110z M13.7,137.4c2.2,0,3.7-0.5,4.6-1.5s1.3-2.6,1.3-4.8v-9.2c0-1.9-0.4-3.4-1.3-4.3c-0.9-1-2.4-1.5-4.6-1.5H11v21.4L13.7,137.4
				L13.7,137.4z"/>
			<path class="st0" d="M32.5,110h21.1v6H38.8v7.6H53v6H38.8v7.7h15.4v6H32.5V110z"/>
			<path class="st0" d="M84.4,110v21.8c0,3.8-1,6.8-3,9s-5,3.2-9,3.2s-7-1.1-9-3.2c-2-2.2-3-5.2-3-9V110h6.3v21.8
				c0,2,0.5,3.5,1.4,4.6s2.4,1.7,4.3,1.7c2,0,3.4-0.6,4.3-1.7c0.9-1.1,1.4-2.7,1.4-4.6V110H84.4z"/>
			<path class="st0" d="M89.2,110h12.1c4.1,0,7.2,1,9.2,2.9s3,4.9,3,8.9v9.7c0,4-1,7-3,8.9s-5.1,2.9-9.2,2.9H89.2v-6.1h3.1V116h-3.1
				V110z M101.3,137.4c2.2,0,3.7-0.5,4.6-1.5s1.3-2.6,1.3-4.8v-9.2c0-1.9-0.4-3.4-1.3-4.3c-0.9-1-2.4-1.5-4.6-1.5h-2.7v21.4
				L101.3,137.4L101.3,137.4z"/>
			<path class="st0" d="M136.4,136.2h-11.3l-1.6,7.2h-6.6l8-33.4h11.8l8,33.4h-6.6L136.4,136.2z M126.4,130.2h8.6l-3.9-17.1h-0.9
				L126.4,130.2z"/>
			<path class="st0" d="M153.9,152.9h-6v-33.2h6v3.4h0.9c0.6-1.3,1.6-2.3,2.8-3s2.8-1.1,4.6-1.1c1.4,0,2.7,0.3,4,0.8
				s2.4,1.3,3.3,2.4c0.9,1,1.7,2.3,2.2,3.8c0.6,1.5,0.8,3.2,0.8,5.1v0.9c0,1.9-0.3,3.7-0.8,5.2s-1.3,2.8-2.2,3.8s-2,1.8-3.3,2.3
				s-2.6,0.8-4.1,0.8c-1.1,0-2-0.1-2.8-0.3s-1.5-0.5-2.1-0.9s-1.1-0.8-1.5-1.3s-0.7-1-1-1.5h-0.9v12.8H153.9z M160.1,138.3
				c1.9,0,3.4-0.6,4.6-1.7c1.2-1.2,1.7-2.7,1.7-4.7v-0.6c0-2-0.6-3.6-1.7-4.7c-1.2-1.2-2.7-1.7-4.6-1.7c-1.9,0-3.4,0.6-4.6,1.8
				c-1.2,1.2-1.7,2.8-1.7,4.7v0.6c0,1.9,0.6,3.5,1.7,4.7C156.8,137.7,158.3,138.3,160.1,138.3z"/>
			<path class="st0" d="M183,152.9h-6v-33.2h6v3.4h0.9c0.6-1.3,1.6-2.3,2.8-3s2.8-1.1,4.6-1.1c1.4,0,2.7,0.3,4,0.8s2.4,1.3,3.3,2.4
				c0.9,1,1.7,2.3,2.2,3.8c0.6,1.5,0.8,3.2,0.8,5.1v0.9c0,1.9-0.3,3.7-0.8,5.2s-1.3,2.8-2.2,3.8s-2,1.8-3.3,2.3s-2.6,0.8-4.1,0.8
				c-1.1,0-2-0.1-2.8-0.3s-1.5-0.5-2.1-0.9s-1.1-0.8-1.5-1.3s-0.7-1-1-1.5H183V152.9z M189.3,138.3c1.9,0,3.4-0.6,4.6-1.7
				c1.2-1.2,1.7-2.7,1.7-4.7v-0.6c0-2-0.6-3.6-1.7-4.7c-1.2-1.2-2.7-1.7-4.6-1.7c-1.9,0-3.4,0.6-4.6,1.8c-1.2,1.2-1.7,2.8-1.7,4.7
				v0.6c0,1.9,0.6,3.5,1.7,4.7C185.9,137.7,187.5,138.3,189.3,138.3z"/>
		</g>
	</g>
</g>
</svg>
